HIERARCHY
ROOT joint_0
{
	OFFSET 0.000000 0.000000 0.000000
	CHANNELS 6 Xposition Yposition Zposition Zrotation Yrotation Xrotation 
	JOINT joint_1
	{
		OFFSET 6.590088 -1.122192 114.019043
		CHANNELS 3 Zrotation Yrotation Xrotation
		JOINT joint_2
		{
			OFFSET -5.956055 -0.820435 104.151001
			CHANNELS 3 Zrotation Yrotation Xrotation
			JOINT joint_3
			{
				OFFSET -7.343506 -1.103027 103.942993
				CHANNELS 3 Zrotation Yrotation Xrotation
				JOINT joint_4
				{
					OFFSET 3.109131 -2.857056 147.715942
					CHANNELS 3 Zrotation Yrotation Xrotation
					JOINT joint_5
					{
						OFFSET 28.592285 -2.852295 87.703979
						CHANNELS 3 Zrotation Yrotation Xrotation
						End Site
						{
							OFFSET 0.000000 0.000000 0.000000
						}
					}
				}
				JOINT joint_6
				{
					OFFSET -0.332520 -33.687378 82.401978
					CHANNELS 3 Zrotation Yrotation Xrotation
					JOINT joint_7
					{
						OFFSET -7.397461 -168.719177 -22.750977
						CHANNELS 3 Zrotation Yrotation Xrotation
						JOINT joint_8
						{
							OFFSET 17.065918 -24.903137 -272.721069
							CHANNELS 3 Zrotation Yrotation Xrotation
							JOINT joint_9
							{
								OFFSET 33.311279 -37.031616 -278.192993
								CHANNELS 3 Zrotation Yrotation Xrotation
								End Site
								{
									OFFSET 0.000000 0.000000 0.000000
								}
							}
						}
					}
				}
				JOINT joint_10
				{
					OFFSET 3.914307 30.461670 83.552979
					CHANNELS 3 Zrotation Yrotation Xrotation
					JOINT joint_11
					{
						OFFSET 15.543701 166.845459 -30.963013
						CHANNELS 3 Zrotation Yrotation Xrotation
						JOINT joint_12
						{
							OFFSET 35.734863 35.017700 -269.786011
							CHANNELS 3 Zrotation Yrotation Xrotation
							JOINT joint_13
							{
								OFFSET 70.506592 13.977783 -273.320007
								CHANNELS 3 Zrotation Yrotation Xrotation
								End Site
								{
									OFFSET 0.000000 0.000000 0.000000
								}
							}
						}
					}
				}
			}
		}
	}
	JOINT joint_14
	{
		OFFSET -0.314697 -95.093994 -116.004028
		CHANNELS 3 Zrotation Yrotation Xrotation
		JOINT joint_15
		{
			OFFSET -22.490723 2.017883 -455.510986
			CHANNELS 3 Zrotation Yrotation Xrotation
			JOINT joint_16
			{
				OFFSET -46.427490 7.144104 -496.360985
				CHANNELS 3 Zrotation Yrotation Xrotation
				JOINT joint_17
				{
					OFFSET 209.055420 -37.122803 -85.191002
					CHANNELS 3 Zrotation Yrotation Xrotation
					End Site
					{
						OFFSET 0.000000 0.000000 0.000000
					}
				}
			}
		}
	}
	JOINT joint_18
	{
		OFFSET 5.652832 94.642578 -116.244019
		CHANNELS 3 Zrotation Yrotation Xrotation
		JOINT joint_19
		{
			OFFSET -12.379883 -7.332642 -455.843994
			CHANNELS 3 Zrotation Yrotation Xrotation
			JOINT joint_20
			{
				OFFSET -45.227051 -8.172241 -496.457985
				CHANNELS 3 Zrotation Yrotation Xrotation
				JOINT joint_21
				{
					OFFSET 210.522949 -11.530396 -88.809004
					CHANNELS 3 Zrotation Yrotation Xrotation
					End Site
					{
						OFFSET 0.000000 0.000000 0.000000
					}
				}
			}
		}
	}
}
MOTION
Frames: 15
Frame Time: 0.016667
-2668.216064 918.916504 1182.677002 1.419454 -2.839602 -0.231644 0.324486 1.206474 0.316392 0.290018 -0.244502 -0.065422 0.303677 0.294671 0.048144 -0.038873 2.704773 0.372970 0.000000 0.000000 0.000000 1.394832 0.683465 1.000028 -0.064159 0.880836 0.987626 -0.171501 1.791066 0.617189 0.000000 0.000000 0.000000 2.174360 0.285555 -0.506540 0.096509 0.083450 -2.480326 1.509124 2.695323 5.567034 0.000000 0.000000 0.000000 1.311077 0.150520 -0.372117 1.334004 2.227783 -0.651967 1.198031 1.645295 0.780297 0.000000 0.000000 0.000000 1.553238 0.271876 -0.423077 1.461029 2.221763 1.808500 1.599287 0.763565 0.715194 0.000000 0.000000 0.000000 
-2668.025879 918.962769 1182.639038 1.402110 -2.841929 -0.231523 0.323534 1.195636 0.315915 0.289240 -0.242392 -0.064519 0.302730 0.293026 0.047214 -0.037287 2.697364 0.367517 0.000000 0.000000 0.000000 1.390918 0.678553 1.028348 -0.064362 0.876479 0.991619 -0.172508 1.769296 0.582804 0.000000 0.000000 0.000000 2.173038 0.287306 -0.539290 0.103300 0.083848 -2.482710 1.539294 2.753200 5.683651 0.000000 0.000000 0.000000 1.315892 0.146766 -0.367903 1.339667 2.255454 -0.662079 1.202353 1.635720 0.780357 0.000000 0.000000 0.000000 1.558539 0.283899 -0.435073 1.465689 2.226448 1.824565 1.605518 0.756738 0.717442 0.000000 0.000000 0.000000 
-2667.842529 919.020630 1182.600952 1.381275 -2.842984 -0.232740 0.323479 1.183321 0.316779 0.289360 -0.241389 -0.062339 0.302590 0.292494 0.045946 -0.035281 2.687690 0.360577 0.000000 0.000000 0.000000 1.388786 0.670404 1.056164 -0.064940 0.869171 0.995098 -0.174956 1.751674 0.541158 0.000000 0.000000 0.000000 2.172640 0.289945 -0.573980 0.110329 0.084679 -2.483576 1.569265 2.810155 5.799846 0.000000 0.000000 0.000000 1.321613 0.141068 -0.362752 1.346307 2.282656 -0.672537 1.207585 1.626850 0.780912 0.000000 0.000000 0.000000 1.565478 0.295522 -0.446865 1.472004 2.229195 1.841138 1.613358 0.749447 0.720343 0.000000 0.000000 0.000000 
-2667.658691 919.074463 1182.562012 1.365735 -2.841366 -0.231891 0.323650 1.168055 0.314981 0.289821 -0.239046 -0.061348 0.302867 0.290842 0.044930 -0.034061 2.680781 0.356255 0.000000 0.000000 0.000000 1.383237 0.660802 1.085433 -0.065513 0.860335 0.991201 -0.176879 1.738167 0.508874 0.000000 0.000000 0.000000 2.170079 0.293342 -0.605595 0.116905 0.086574 -2.481216 1.596096 2.863475 5.903740 0.000000 0.000000 0.000000 1.325596 0.131132 -0.360450 1.351025 2.313104 -0.681372 1.211091 1.617893 0.780750 0.000000 0.000000 0.000000 1.570795 0.304931 -0.461066 1.476631 2.230022 1.857647 1.619513 0.742926 0.722577 0.000000 0.000000 0.000000 
-2667.472412 919.118530 1182.524048 1.360973 -2.835989 -0.227062 0.320892 1.150570 0.306630 0.287709 -0.237610 -0.060622 0.300660 0.289015 0.044822 -0.033148 2.679390 0.353347 0.000000 0.000000 0.000000 1.378431 0.649306 1.117021 -0.065879 0.850329 0.974723 -0.177031 1.726836 0.494172 0.000000 0.000000 0.000000 2.170620 0.298135 -0.633528 0.122592 0.089010 -2.473942 1.618518 2.913599 5.989869 0.000000 0.000000 0.000000 1.326388 0.114938 -0.363510 1.352201 2.349479 -0.687203 1.211419 1.608744 0.779259 0.000000 0.000000 0.000000 1.573007 0.312116 -0.479844 1.478073 2.225960 1.874223 1.622474 0.738238 0.723568 0.000000 0.000000 0.000000 
-2667.286621 919.157471 1182.485962 1.361528 -2.828113 -0.220033 0.317995 1.130381 0.294184 0.285741 -0.235246 -0.059477 0.298530 0.287337 0.044321 -0.033298 2.679385 0.353791 0.000000 0.000000 0.000000 1.370643 0.635651 1.150982 -0.066228 0.838213 0.950193 -0.176651 1.719487 0.488668 0.000000 0.000000 0.000000 2.169575 0.303168 -0.658400 0.127760 0.091854 -2.463253 1.637863 2.960598 6.063735 0.000000 0.000000 0.000000 1.325332 0.094739 -0.369460 1.351347 2.388823 -0.691514 1.209911 1.599876 0.777071 0.000000 0.000000 0.000000 1.573575 0.317154 -0.501162 1.477801 2.219984 1.890830 1.623722 0.734950 0.723916 0.000000 0.000000 0.000000 
-2667.105225 919.189087 1182.443970 1.363461 -2.821633 -0.215004 0.316120 1.113123 0.282483 0.284817 -0.234075 -0.056746 0.297234 0.285641 0.042262 -0.033494 2.680493 0.354463 0.000000 0.000000 0.000000 1.365106 0.621505 1.185040 -0.066950 0.825950 0.925920 -0.177414 1.720038 0.482847 0.000000 0.000000 0.000000 2.168809 0.308104 -0.680173 0.132592 0.094690 -2.451639 1.654668 3.001223 6.128229 0.000000 0.000000 0.000000 1.323543 0.076654 -0.371901 1.350003 2.426913 -0.697592 1.207785 1.591178 0.774661 0.000000 0.000000 0.000000 1.573114 0.318653 -0.518186 1.476479 2.222537 1.905309 1.623969 0.730228 0.723762 0.000000 0.000000 0.000000 
-2666.933594 919.212097 1182.400024 1.363722 -2.818437 -0.213576 0.317724 1.099706 0.273547 0.287176 -0.231977 -0.054541 0.299297 0.284568 0.040779 -0.033949 2.678542 0.355637 0.000000 0.000000 0.000000 1.358216 0.605150 1.218997 -0.068048 0.811338 0.901654 -0.179825 1.731341 0.475802 0.000000 0.000000 0.000000 2.162403 0.311297 -0.700661 0.137487 0.096852 -2.438842 1.669649 3.034272 6.186518 0.000000 0.000000 0.000000 1.321449 0.063826 -0.368033 1.348790 2.460594 -0.707196 1.205500 1.583816 0.772422 0.000000 0.000000 0.000000 1.572081 0.315193 -0.527205 1.474609 2.239676 1.915186 1.623604 0.723457 0.723236 0.000000 0.000000 0.000000 
-2666.767090 919.227600 1182.354004 1.365920 -2.816305 -0.213976 0.320207 1.088285 0.265506 0.290352 -0.230167 -0.052325 0.302183 0.283390 0.039338 -0.034592 2.677508 0.357456 0.000000 0.000000 0.000000 1.353441 0.588396 1.253083 -0.069517 0.796678 0.877086 -0.183235 1.749376 0.468309 0.000000 0.000000 0.000000 2.155666 0.314337 -0.719056 0.142142 0.098908 -2.424254 1.682027 3.060845 6.235108 0.000000 0.000000 0.000000 1.318466 0.052880 -0.360752 1.346935 2.492675 -0.718771 1.202433 1.577418 0.770036 0.000000 0.000000 0.000000 1.569846 0.307563 -0.532271 1.471487 2.265581 1.923184 1.622057 0.716095 0.722178 0.000000 0.000000 0.000000 
-2666.592773 919.242737 1182.303955 1.373242 -2.812044 -0.214632 0.321659 1.073094 0.259243 0.292456 -0.227365 -0.049730 0.303907 0.281274 0.037310 -0.034978 2.679071 0.358711 0.000000 0.000000 0.000000 1.350022 0.575991 1.286093 -0.071560 0.786400 0.856680 -0.187689 1.770675 0.455900 0.000000 0.000000 0.000000 2.154287 0.319303 -0.737496 0.146427 0.101645 -2.407798 1.691191 3.080508 6.271615 0.000000 0.000000 0.000000 1.314450 0.039079 -0.353523 1.344062 2.527557 -0.730123 1.198397 1.569673 0.767015 0.000000 0.000000 0.000000 1.565713 0.297989 -0.539954 1.466242 2.290684 1.936320 1.618935 0.708702 0.720454 0.000000 0.000000 0.000000 
-2666.406738 919.263672 1182.250000 1.388020 -2.803680 -0.215212 0.320324 1.053063 0.255985 0.291547 -0.226572 -0.048463 0.302824 0.281135 0.036279 -0.034942 2.682755 0.358851 0.000000 0.000000 0.000000 1.351846 0.568424 1.316328 -0.074344 0.781358 0.842857 -0.193665 1.794567 0.433804 0.000000 0.000000 0.000000 2.163798 0.326358 -0.758898 0.150049 0.103469 -2.385134 1.695537 3.093004 6.289284 0.000000 0.000000 0.000000 1.309064 0.020681 -0.347736 1.339722 2.565460 -0.740139 1.193062 1.560012 0.763126 0.000000 0.000000 0.000000 1.559249 0.287109 -0.553925 1.458309 2.309909 1.959229 1.614001 0.702669 0.718040 0.000000 0.000000 0.000000 
-2666.213867 919.285095 1182.192993 1.407936 -2.793348 -0.216373 0.318275 1.030226 0.255756 0.289693 -0.225182 -0.048728 0.300975 0.279224 0.036595 -0.034473 2.689925 0.357962 0.000000 0.000000 0.000000 1.354227 0.565607 1.344623 -0.077746 0.780966 0.833094 -0.200706 1.821650 0.406568 0.000000 0.000000 0.000000 2.177455 0.335767 -0.781655 0.153452 0.106465 -2.359882 1.696480 3.097995 6.294083 0.000000 0.000000 0.000000 1.302617 -0.000345 -0.341575 1.334359 2.605791 -0.750033 1.186748 1.549649 0.758713 0.000000 0.000000 0.000000 1.550882 0.274367 -0.570189 1.448261 2.328280 1.987271 1.607494 0.696976 0.714980 0.000000 0.000000 0.000000 
-2666.013916 919.292969 1182.130005 1.432344 -2.783359 -0.216976 0.314734 1.004767 0.256396 0.286272 -0.224069 -0.049776 0.297654 0.278729 0.037215 -0.033700 2.696762 0.356101 0.000000 0.000000 0.000000 1.358533 0.568625 1.372218 -0.081310 0.786529 0.826398 -0.207306 1.847488 0.381685 0.000000 0.000000 0.000000 2.196030 0.346876 -0.800372 0.156381 0.111223 -2.341961 1.697102 3.098487 6.298615 0.000000 0.000000 0.000000 1.294802 -0.022801 -0.335009 1.327699 2.650804 -0.760328 1.179125 1.539032 0.753722 0.000000 0.000000 0.000000 1.540638 0.258792 -0.584609 1.436316 2.352594 2.012689 1.599063 0.690534 0.711069 0.000000 0.000000 0.000000 
-2665.805908 919.284363 1182.061035 1.462160 -2.776789 -0.216060 0.309285 0.978256 0.256594 0.280951 -0.219179 -0.051684 0.292473 0.273730 0.038745 -0.032924 2.705984 0.354444 0.000000 0.000000 0.000000 1.365588 0.579755 1.397958 -0.085081 0.800329 0.824253 -0.213306 1.871676 0.360020 0.000000 0.000000 0.000000 2.219753 0.361269 -0.812193 0.158845 0.120094 -2.337183 1.698272 3.093230 6.306871 0.000000 0.000000 0.000000 1.285269 -0.045048 -0.328885 1.319351 2.704040 -0.770943 1.169804 1.527367 0.747852 0.000000 0.000000 0.000000 1.528281 0.241379 -0.594882 1.422385 2.387356 2.030218 1.588247 0.682249 0.706053 0.000000 0.000000 0.000000 
-2665.590576 919.261230 1181.985962 1.495819 -2.770781 -0.214460 0.303106 0.949595 0.256902 0.274886 -0.214688 -0.054007 0.286629 0.270116 0.040761 -0.032178 2.714768 0.352824 0.000000 0.000000 0.000000 1.372090 0.596674 1.423115 -0.088996 0.819702 0.825320 -0.218931 1.894857 0.340418 0.000000 0.000000 0.000000 2.246553 0.377303 -0.819550 0.160837 0.131105 -2.340330 1.699109 3.083110 6.314866 0.000000 0.000000 0.000000 1.274479 -0.068525 -0.322249 1.309833 2.761854 -0.782209 1.159280 1.515245 0.741410 0.000000 0.000000 0.000000 1.514272 0.221455 -0.603160 1.406804 2.427980 2.044719 1.575700 0.673539 0.700285 0.000000 0.000000 0.000000 
